<svg xmlns="http://www.w3.org/2000/svg" viewBox="0 0 393.57 48.05"><defs><style>.cls-1{fill:#eb343d;}</style></defs><title>Asset 1</title><g id="Layer_2" data-name="Layer 2"><g id="backGround"><path class="cls-1" d="M0,39.35v-6.3a.85.85,0,0,1,1-1H7.21a.85.85,0,0,1,1,1v4.63a2.12,2.12,0,0,0,2.41,2.4h2.87a2.12,2.12,0,0,0,2.4-2.4v-8L1.64,25A2.15,2.15,0,0,1,0,22.79V8.64Q0,4.43,2.23,2.21A8.72,8.72,0,0,1,8.64,0h6.74q4.24,0,6.45,2.2T24,8.64V15a.84.84,0,0,1-1,.94H16.82a.85.85,0,0,1-1-.94V10.31a2.12,2.12,0,0,0-2.4-2.4H10.58a2.4,2.4,0,0,0-1.78.63,2.39,2.39,0,0,0-.63,1.77v8.26l14.27,4.69A2.25,2.25,0,0,1,24,25.49V39.35q0,4.24-2.19,6.44T15.38,48H8.64a8.72,8.72,0,0,1-6.41-2.21Q0,43.56,0,39.35Z"/><path class="cls-1" d="M30,39.35V7.18a1.17,1.17,0,0,1,.35-.85A1.15,1.15,0,0,1,31.2,6H37a1.2,1.2,0,0,1,1.2,1.2v30.5a2.12,2.12,0,0,0,2.41,2.4h3.1a2.12,2.12,0,0,0,2.4-2.4V7.18a1.14,1.14,0,0,1,.36-.85A1.12,1.12,0,0,1,47.29,6h5.53A1.2,1.2,0,0,1,54,7.18V39.35q0,4.24-2.19,6.44T45.38,48H38.64q-4.24,0-6.44-2.2T30,39.35Z"/><path class="cls-1" d="M60,47V6.94a1,1,0,0,1,.26-.7A.94.94,0,0,1,61,6H75.38q4.25,0,6.45,2.19T84,14.62V26.4q0,4.19-2.19,6.4T75.38,35l-7.56.06v12a.86.86,0,0,1-1,1L61,48a1,1,0,0,1-.71-.27A1,1,0,0,1,60,47Zm7.82-19.69,6,0a2.12,2.12,0,0,0,2.4-2.38V16.14a2.12,2.12,0,0,0-2.4-2.4l-6,.06Z"/><path class="cls-1" d="M90,47V6.94a1,1,0,0,1,.26-.7A.94.94,0,0,1,91,6h14.41q4.25,0,6.45,2.19T114,14.62V26.4q0,4.19-2.19,6.4T105.38,35l-7.56.06v12a.86.86,0,0,1-1,1L91,48a1,1,0,0,1-.71-.27A1,1,0,0,1,90,47Zm7.82-19.69,6,0a2.12,2.12,0,0,0,2.4-2.38V16.14a2.12,2.12,0,0,0-2.4-2.4l-6,.06Z"/><path class="cls-1" d="M119.41,39.35V14.62c0-2.83.74-5,2.2-6.45S125.22,6,128.06,6h6.73q4.26,0,6.45,2.19t2.2,6.45V39.35q0,4.24-2.2,6.44T134.79,48h-6.73c-2.84,0-5-.73-6.45-2.2S119.41,42.18,119.41,39.35Zm7.83-1.5a2.12,2.12,0,0,0,2.4,2.4h3.84a2.12,2.12,0,0,0,2.4-2.4V16.14a2.12,2.12,0,0,0-2.4-2.4h-3.84a2.12,2.12,0,0,0-2.4,2.4Z"/><path class="cls-1" d="M149.41,47V6.94a.94.94,0,0,1,.27-.7.92.92,0,0,1,.7-.26h14.41q4.26,0,6.45,2.19t2.2,6.45V26.69c0,3.5-1.13,5.94-3.37,7.32l3.1,12.89c.18.73-.09,1.09-.82,1.09h-5.89a1,1,0,0,1-1-.85l-2.87-11.81h-5.33V47a.93.93,0,0,1-1,1h-5.89a.93.93,0,0,1-1-1Zm7.83-19.42h6a2.13,2.13,0,0,0,2.41-2.4V16.14a2.13,2.13,0,0,0-2.41-2.4h-6Z"/><path class="cls-1" d="M178.21,6.94a.94.94,0,0,1,.27-.7.92.92,0,0,1,.7-.26h22.09a.86.86,0,0,1,1,1v6a.86.86,0,0,1-1,1h-7V47a.85.85,0,0,1-.94,1h-6.24a.85.85,0,0,1-1-1V13.92h-7a.93.93,0,0,1-1-1Z"/><path d="M222,46.79V1.2a1.06,1.06,0,0,1,1.2-1.2h7.93a1.23,1.23,0,0,1,1.31,1.05l6.64,29.89,6.64-29.89a1.24,1.24,0,0,1,1.32-1H255a1.06,1.06,0,0,1,1.2,1.2V46.79A1.06,1.06,0,0,1,255,48h-5.56a1.06,1.06,0,0,1-1.19-1.2v-27h-.41L241.88,46.9A1.26,1.26,0,0,1,240.56,48h-2.93a1.25,1.25,0,0,1-1.32-1.09l-5.95-27.12H230v27a1.06,1.06,0,0,1-1.2,1.2h-5.54A1.06,1.06,0,0,1,222,46.79Z"/><path d="M260,7.38a1.16,1.16,0,0,1-.15-.54.72.72,0,0,1,.15-.45,1,1,0,0,1,.94-.41h6a1.37,1.37,0,0,1,1.38,1L275,22.38l6.71-15.44a1.37,1.37,0,0,1,1.38-1h6a1,1,0,0,1,.94.41.75.75,0,0,1,.15.47,1.38,1.38,0,0,1-.12.52l-11,24.88V46.79a1.06,1.06,0,0,1-1.2,1.2h-5.77a1.06,1.06,0,0,1-1.2-1.2V32.26Z"/><path d="M308.76,47V6.94a.85.85,0,0,1,1-1h14.41q4.25,0,6.45,2.22t2.19,6.48V39.35q0,4.24-2.19,6.44T324.14,48H309.73A.85.85,0,0,1,308.76,47Zm8.17-6.94h5.51a2.12,2.12,0,0,0,2.4-2.4V16.38a2.15,2.15,0,0,0-2.4-2.46h-5.51Z"/><path d="M337,47,347,6.83A1,1,0,0,1,348,6h8.46a.94.94,0,0,1,1,.81l10,40.14a1.81,1.81,0,0,1,.05.36c0,.47-.3.7-.92.7h-5.9c-.51,0-.82-.29-.94-.86l-1.85-7.55H346.58l-1.84,7.57a.92.92,0,0,1-1,.84h-5.94c-.57,0-.86-.22-.86-.65A1.42,1.42,0,0,1,337,47Zm11.24-14.32h8l-4-16.31Z"/><path d="M363.34,7.38a1.16,1.16,0,0,1-.15-.54.72.72,0,0,1,.15-.45,1,1,0,0,1,.94-.41h6a1.37,1.37,0,0,1,1.38,1l6.74,15.44,6.71-15.44a1.37,1.37,0,0,1,1.37-1h6a1,1,0,0,1,.94.41.75.75,0,0,1,.14.47,1.35,1.35,0,0,1-.11.52l-11,24.88V46.79a1.06,1.06,0,0,1-1.2,1.2H375.5a1.06,1.06,0,0,1-1.2-1.2V32.26Z"/></g></g></svg>