<svg id="Layer_1" data-name="Layer 1" xmlns="http://www.w3.org/2000/svg" viewBox="0 0 190.69 401.01"><defs><style>.cls-1,.cls-2{fill:#EB343D;}.cls-2{font-size:18.61px;font-family:Montserrat-SemiBold, Montserrat;font-weight:700;}.cls-3{letter-spacing:0.02em;}.cls-4{letter-spacing:0em;}.cls-5{letter-spacing:-0.01em;}.cls-6{letter-spacing:-0.01em;}</style></defs><title>LogoVector</title><path class="cls-1" d="M55.16,57.36c.52-22.88,18-44.43,41-48.43,17.27-3,32.1,2.52,44.11,15.35,9,9.65,13.52,21.23,14.08,34.33.35,8.18-4.6,13.88-12,14.31-6.9.4-12.51-4.53-13.13-12.4-.69-8.65-3.47-16.06-10.21-21.75-9-7.56-21.12-7.23-29.54.95-5.06,4.91-8.34,10.75-8.81,18a28.21,28.21,0,0,1-1.21,6.84,12.12,12.12,0,0,1-12.93,8.32A12.92,12.92,0,0,1,55.17,61C55.09,60.1,55.16,59.19,55.16,57.36Z" transform="translate(-9.95 -8.13)"/><path class="cls-1" d="M55,178.55c0-7.42,3.7-12.7,10.14-14.21A12.06,12.06,0,0,1,79,171.15c1.21,2.88,1.41,6.25,1.78,9.43,1.57,13.71,12.46,23.27,26.11,22.79,8.15-.28,17.23-7.51,20.38-16.75,1.15-3.36,1.43-7,2-10.59,1.11-7.33,6.65-12.4,13.24-12,7.21.46,12.32,6.13,11.94,14-1.08,22.73-15.34,43.86-39,49.53s-49.07-8.88-57.13-33.13a87.26,87.26,0,0,1-2.45-9.74C55.36,182.68,55.27,180.6,55,178.55Z" transform="translate(-9.95 -8.13)"/><path class="cls-1" d="M124.38,171.07l-61-92.61C73.71,79.1,80.93,75.61,85.27,66c20.4,31.08,40.28,61.36,60.62,92.36C136,158.5,128.42,161.32,124.38,171.07Z" transform="translate(-9.95 -8.13)"/><path class="cls-1" d="M113,282.43c-1.77-3.08-3.39-6-5.09-8.84-1.48-2.49.68-3.28,2.07-4.12,14.73-8.85,29.6-.89,34.09,12.61a29.51,29.51,0,0,1,1.38,9.11c.11,22.86.07,45.71,0,68.57,0,1.4.26,3.26-.49,4.12-1.48,1.69-3.43,3.62-5.47,4-2.72.53-4.9-1.42-5.54-4.3a23.76,23.76,0,0,1-.32-5c0-21.95,0-43.91-.06-65.86a22.41,22.41,0,0,0-1.07-7.58c-2.94-7.89-11.6-9.83-17.86-4.21C114.13,281.44,113.57,281.93,113,282.43Z" transform="translate(-9.95 -8.13)"/><path class="cls-1" d="M168.51,352.65l3,1.84c6.21,3.72,13.73,1.15,16.09-5.73a24.59,24.59,0,0,0,1.14-7.59c.1-13.82,0-27.63,0-41.45v-2.37h11.4a9.93,9.93,0,0,1,.38,2.22c0,14.59.16,29.18,0,43.77-.15,11.94-7.09,21.19-17.69,24a22.16,22.16,0,0,1-5.73.77c-7.71,0-8.63-.94-8.62-8.51Z" transform="translate(-9.95 -8.13)"/><path class="cls-1" d="M154.45,297.43h11.21c.05.53.2,1.51.21,2.48q0,30.82,0,61.65c0,4.36-2,6.84-5.47,7.05s-6.1-2.12-6.13-6.43c-.12-21.33-.07-42.65-.06-64A1.91,1.91,0,0,1,154.45,297.43Z" transform="translate(-9.95 -8.13)"/><path class="cls-1" d="M99.31,297.71h11.43c.07.8.28,2.12.28,3.43q0,29.43,0,58.86a17.33,17.33,0,0,1-.11,2.7c-.5,3.31-3,5.53-6,5.38a5.67,5.67,0,0,1-5.53-5.85c-.13-5.16,0-10.32,0-15.49v-49Z" transform="translate(-9.95 -8.13)"/><path class="cls-1" d="M64.75,297.74H76.17a18.69,18.69,0,0,1,.28,2.56q0,30,0,60.09a14.23,14.23,0,0,1-.34,3.45c-.68,2.74-2.76,4.58-5.31,4.05-2.06-.43-4.14-2.2-5.5-3.93-.86-1.1-.52-3.23-.53-4.9q0-28.68,0-57.37Z" transform="translate(-9.95 -8.13)"/><path class="cls-1" d="M154.43,288.53c.41-12.26,10.65-22.88,22.26-23.1,12.15-.23,23,10.27,23.77,22.93.21,3.67-1.93,6.81-5,7.27-3.31.49-6.06-1.85-6.7-5.92-.83-5.25-2.85-9.76-8.12-11.79s-12.35,2-13.95,7.79c-.37,1.36-.51,2.79-.78,4.18-.76,4-3.26,6.19-6.46,5.74S154.29,292.45,154.43,288.53Z" transform="translate(-9.95 -8.13)"/><path class="cls-1" d="M10,288c.33-11.84,11-22.6,22.34-22.56,12.49,0,23.46,10.78,23.53,23,0,4.18-2.09,7-5.44,7.15s-5.64-2.37-6.31-6.48a18,18,0,0,0-1.87-5.8c-2.54-4.62-6.72-6.81-10.73-6a12.77,12.77,0,0,0-9.76,10.32c-.06.39,0,.78-.09,1.16-.53,4.5-3,7.09-6.38,6.77S9.86,292.55,10,288Z" transform="translate(-9.95 -8.13)"/><path class="cls-1" d="M64.89,288.54c.51-12.15,10.77-22.69,22.13-22.76A24.1,24.1,0,0,1,111,288.5c.23,4-1.64,6.89-4.76,7.28-3.72.47-6.26-1.76-6.93-6.08-1.14-7.38-4.42-11.26-10.07-11.91a10.84,10.84,0,0,0-11.87,7.72,38.43,38.43,0,0,0-.86,4.55c-.79,4.34-2.74,6.12-6.28,5.73S64.71,292.72,64.89,288.54Z" transform="translate(-9.95 -8.13)"/><path class="cls-1" d="M10,345.22c0-4.2,2-6.85,5.49-7s5.74,2.31,6.21,6.5c.77,6.94,5.24,11.47,11.29,11.43s10.52-4.65,11.23-11.54c.43-4.16,2.78-6.57,6.24-6.38s5.56,2.92,5.45,7.06a23.79,23.79,0,0,1-24.07,22.81C20.47,368.06,10.07,357.16,10,345.22Z" transform="translate(-9.95 -8.13)"/><path class="cls-1" d="M51.26,334.23,41.17,340,14.45,299.63l10.14-6Z" transform="translate(-9.95 -8.13)"/><text class="cls-2" transform="translate(18.32 396.08)">Suppo<tspan class="cls-3" x="61.92" y="0">r</tspan><tspan class="cls-4" x="70.01" y="0">t </tspan><tspan class="cls-5" x="83.04" y="0">m</tspan><tspan x="102.45" y="0">y D</tspan><tspan class="cls-6" x="133.72" y="0">a</tspan><tspan x="144.83" y="0">y</tspan></text></svg>
